<?xml version="1.0" encoding="utf-8"?>
<!-- Generator: Adobe Illustrator 20.1.0, SVG Export Plug-In . SVG Version: 6.00 Build 0)  -->
<svg version="1.1" id="Layer_4" xmlns="http://www.w3.org/2000/svg" xmlns:xlink="http://www.w3.org/1999/xlink" x="0px" y="0px"
	 viewBox="0 0 1280 800" style="enable-background:new 0 0 1280 800;" xml:space="preserve">
<style type="text/css">
	.st0{opacity:0.55;fill:#FF8B00;}
	.st1{opacity:0.54;fill:#FFB000;}
	.st2{opacity:0.34;fill:#FFC200;}
	.st3{fill:none;}
	.st4{opacity:0.34;fill:#EDE20F;}
	.st5{opacity:0.34;fill:#F2EB0C;}
	.st6{opacity:0.61;fill:#FFFF00;}
	.st7{fill:#1D1D1B;}
	.st8{fill:#FFFFFF;}
	.st9{fill:#201400;}
	.st10{fill:#E6E6E6;}
	.st11{fill:#006837;}
	.st12{fill:url(#XMLID_23_);}
	.st13{fill:#009245;}
	.st14{fill:#0D5037;}
	.st15{fill:#F2F2F2;}
</style>
<g id="XMLID_239_">
	<g id="XMLID_2_">
		<circle id="XMLID_3_" class="st0" cx="628.3" cy="290.9" r="266.9"/>
		<circle id="XMLID_4_" class="st1" cx="628.3" cy="290.9" r="233"/>
		<circle id="XMLID_6_" class="st2" cx="628.3" cy="290.9" r="193.7"/>
		<circle id="XMLID_8_" class="st3" cx="628.3" cy="290.9" r="159.9"/>
		<circle id="XMLID_9_" class="st4" cx="628.3" cy="290.9" r="122.1"/>
		<circle id="XMLID_12_" class="st5" cx="628.3" cy="290.9" r="87"/>
		<circle id="XMLID_15_" class="st6" cx="628.3" cy="290.9" r="61.2"/>
		<path id="XMLID_x5F_23_x5F_" class="st3" d="M1075.6,798.6c4.3,106.8-180.8,200.9-413.4,210.3s-424.7-69.6-429-176.4
			c-4.3-106.8,180.8-200.9,413.4-210.3S1071.2,691.8,1075.6,798.6z"/>
		<text id="XMLID_24_">		<textPath  xlink:href="#XMLID_x5F_23_x5F_" startOffset="75.3253%">
<tspan  style="font-family:'Noteworthy-Light'; font-size:40px;">Strive to be Fit, Set yourself a Goal, And Challenge Yourself</tspan>		</textPath>
</text>
		<path id="XMLID_1_" class="st7" d="M579.8,279.1c-0.9,0.5-5.8,2.3-7.3,3c-1.5,0.7-2.9,0.8-4.4,1.6s-1.8,1.3-2.1,1.3
			s-2-1.2-2.4-1.3c-0.3-0.1-1.4,0.1-0.7,1.1c0.6,1,1.8,1.8,1.6,2.8c-0.2,1-0.8,4.2-0.8,4.9s0.9,2.7,0.9,3.7s-0.2,3.6-0.4,5
			c-0.2,1.4-0.4,2.4-0.9,3c-0.5,0.5-0.4,0.8-0.4,0.9c0,0.2,0.1,0.4,0.1,0.5s-0.6,1.1-0.8,1.4c-0.1,0.4,0.1,0.7,0,0.9s-0.1,0.5,0.1,1
			c0.3,0.5,0.4,1.1,0.6,1.8c0.2,0.7,0.6,2.9,0.7,3.2c0.1,0.3,0.2,0.9,0.2,1.2s0.2,0.7,0.4,0.9s0.4,0.3,0.4,0.4
			c0.1,0.1,0.4,0.5,0.7,0.4c0.4-0.1,0.6-0.3,0.6-0.3s0.2,0.2,0.9-0.2c0.7-0.3,0.9-1.3,0.3-1.7c-0.6-0.5-1-0.4-1.3-0.7
			c-0.3-0.3-0.7-1.2-0.7-1.4s-0.1-0.6-0.1-0.6c0.1,0,0.3,0.9,0.7,1.2s0.7,0.2,0.9,0.2c0.3-0.1,0.5-0.4,0.6-0.4c0.1,0,0.6,0,0.8-0.3
			c0.2-0.4-0.1-1.4-0.7-1.4c-0.5-0.1-0.8,0.1-1,0c-0.2-0.1-0.6-1-0.7-1.5s-0.3-0.9-0.2-1.3c0.1-0.4,0-0.8,0-0.9
			c0-0.2-0.1-0.4-0.1-0.6c0.1-0.3,0.3-0.9,0.9-1.9c0.6-1,1.1-1.9,1.6-2.8c0.6-0.9,1.9-2.7,2.3-3.7c0.4-1.1,0.7-3.1,1.6-4.4
			c0.9-1.2,1.9-2.1,2.7-2.3s4.5-0.5,7.6-0.6s5.7,0.2,6.7-0.1s1.2-0.4,1.4-0.4s0.1,0.5,0.4,0.7s1.4,1.7,1.8,3.2s1,2.8,1.3,3.6
			c0.2,0.8,0.6,1.8,0.8,2.5c0.2,0.7,0.3,1.4,0.5,1.5c0.2,0.1,0.5-0.3,0.6-0.2c0.2,0.1,1,1.2,1.6,2.2s1,1.5,1.8,1.3s1-0.5,1-0.5
			s0.4,0.1,1-0.2c0.6-0.3,0.3-0.9,0.2-1.1c-0.1-0.2-0.3-0.5-0.2-0.5c0,0,0.2,0,0.4-0.3c0.1-0.3-0.4-0.8-0.7-1
			c-0.3-0.2-0.3-0.4-0.9-0.2c-0.5,0.2-0.6,0.2-1-0.2c-0.4-0.4-1.2-1.6-1.4-2.1c-0.2-0.4-0.2-1.3-0.4-1.9c-0.2-0.6-0.5-1.7-0.8-2.8
			c-0.3-1-0.5-2.1-0.8-3.6c-0.3-1.6-0.6-4-0.4-4.7c0.2-0.7,0.7-1.4,0.7-2.2c0-0.7-0.1-2.1-0.6-3.5c-0.5-1.4-1-2.5-1.1-3.2
			c-0.1-0.7,0-2.7,0-4s0-3.5,0.2-3.7c0.1-0.2,0.8-0.1,1.2-0.2s0.7-0.2,1.3-0.1c0.6,0,1.3-0.2,1.8-0.3c0.5-0.1,1.1,0,1.8-0.5
			c0.7-0.4,0.8-0.8,1-1.1c0.3-0.3,0.6-0.9,0.7-1.2c0.1-0.3,0.2-0.5-0.4-0.6s-1.5-0.5-2.2-0.6c-0.6-0.1-1.4-0.2-1.8-0.5
			s-0.5-0.6-0.7-0.8c-0.2-0.2-1.1-0.5-1.6-0.7c-0.5-0.1-1.4-0.6-1.7-0.7c-0.3-0.1-0.7-0.1-0.8-0.3c-0.1-0.2-0.7-1.3-0.9-1.8
			s-0.7-1.4-0.9-1.4s-0.2,1.4-0.5,2.3c-0.3,0.9-0.7,1.7-0.7,2.1c0,0.4-0.4,1.1-0.7,1.7c-0.3,0.6-1.3,2.7-1.6,4.2
			c-0.3,1.5-1,4.8-1.6,5.4s-3.5,2.7-4.3,3.3S580.6,278.6,579.8,279.1z"/>
		<path id="XMLID_14_" class="st8" d="M526.3,115.6l-1.6-0.3c-0.1,0-0.2-0.2-0.2-0.3l0,0c0-0.1,0.2-0.2,0.3-0.2l1.6,0.3
			c0.1,0,0.2,0.2,0.2,0.3l0,0C526.5,115.5,526.4,115.6,526.3,115.6z"/>
		<path id="XMLID_16_" class="st8" d="M526,116.3l-1.6-0.3c-0.1,0-0.2-0.2-0.2-0.3l0,0c0-0.1,0.2-0.2,0.3-0.2l1.6,0.3
			c0.1,0,0.2,0.2,0.2,0.3l0,0C526.3,116.2,526.2,116.3,526,116.3z"/>
		<g id="XMLID_10_">
			<path id="XMLID_232_" class="st3" d="M871.9,469.9l-0.8,0.7c-0.1-0.2-0.2-0.3-0.3-0.5L871.9,469.9z"/>
			<polygon id="XMLID_231_" class="st3" points="851.6,470.6 858.2,472.6 853.4,473.7 			"/>
			<path id="XMLID_230_" class="st3" d="M860.8,473l-1.1-0.3l1.1-0.2C860.8,472.6,860.8,472.8,860.8,473z"/>
			<path id="XMLID_229_" class="st3" d="M871.6,472.8l1.1,0.3l-1.1,0.2C871.6,473.2,871.6,473,871.6,472.8z"/>
			<path id="XMLID_228_" class="st3" d="M871.1,475.1c0.2-0.4,0.3-0.9,0.4-1.4l1.9-0.4l7.4,2.2c-0.1,1.1-0.4,2.2-0.8,3.2l-7.6-2.3
				L871.1,475.1z"/>
			<path id="XMLID_227_" class="st3" d="M880.8,471.6c0.2,1.2,0.2,2.4,0.1,3.5l-6.7-2L880.8,471.6z"/>
			<path id="XMLID_226_" class="st3" d="M863.3,477.8l-0.6,0.5l0.3-0.9C863,477.4,863.1,477.6,863.3,477.8z"/>
			<path id="XMLID_225_" class="st3" d="M863.2,467.7l-0.1-0.5l0.8,0.8c-0.1,0-0.2,0.1-0.2,0.1L863.2,467.7z"/>
			<path id="XMLID_224_" class="st3" d="M860.8,473.4c0,0.1,0,0.2,0,0.4c-1.1,0.9-2.8,2.4-3.2,2.7c0,0,0,0-0.1,0l-0.3,0.1
				c-0.2-0.1-0.4-0.5-0.6-0.6c-0.2-0.1-0.9,0.6-1.3,0.9l-1.7-2.9l5.3-1.2L860.8,473.4z"/>
			<path id="XMLID_223_" class="st3" d="M865,458.6c0.7,0,1.3,0,2,0l-0.8,5.4L865,458.6z"/>
			<path id="XMLID_222_" class="st3" d="M875.1,461.8l-4.7,4.4l1.9-6.1C873.3,460.5,874.2,461.1,875.1,461.8z"/>
			<path id="XMLID_221_" class="st3" d="M869,458.9c1,0.2,2,0.5,2.9,1l-2.1,6.8l-1.4,1.3c-0.2-0.1-0.4-0.2-0.6-0.2L869,458.9z"/>
			<path id="XMLID_220_" class="st3" d="M867.7,488.5c-1.4,0.2-2.8,0.2-4.2,0l2.4-7.7L867.7,488.5z"/>
			<path id="XMLID_219_" class="st3" d="M864.5,478c0.1,0.2,0.2,0.3,0.2,0.4c0.1,0,0.2-0.1,0.2-0.2c0,0,0.1,0,0.1,0
				c0.1,0.2,0.2,0.5,0.4,0.8l0.3,1.1l-2.6,8.4c-1.1-0.2-2.2-0.5-3.2-0.9l2.6-8.4l1.3-1.2c0,0,0.1,0,0.1-0.1
				C864.1,477.8,864.3,477.9,864.5,478z"/>
			<path id="XMLID_218_" class="st3" d="M868.5,477.7c0.2-0.1,0.3-0.2,0.5-0.3l0.2,1.1L868.5,477.7z"/>
			<path id="XMLID_217_" class="st3" d="M862.7,467.1l-5.5-5.9c0.1,0,0.1-0.1,0.2-0.1l5.2,5.6L862.7,467.1z"/>
			<path id="XMLID_216_" class="st3" d="M873.2,469.2l4.8-4.4c0.7,0.9,1.2,1.9,1.7,2.9L873.2,469.2z"/>
			<path id="XMLID_215_" class="st3" d="M880.7,471.3l-7.3,1.7l-1.8-0.6c0-0.5-0.2-0.9-0.3-1.4l1.4-1.3l7.2-1.6
				C880.2,469.1,880.5,470.2,880.7,471.3z"/>
			<path id="XMLID_214_" class="st3" d="M865.9,479.1C865.9,479.1,866,479.1,865.9,479.1l0,0.2L865.9,479.1z"/>
			<path id="XMLID_213_" class="st3" d="M856,485.1l6-5.5l-2.4,7.7C858.3,486.8,857.1,486,856,485.1z"/>
			<path id="XMLID_212_" class="st3" d="M871.7,476.3l-1.1-0.3c0.1-0.2,0.2-0.3,0.3-0.5L871.7,476.3z"/>
			<path id="XMLID_211_" class="st3" d="M879.8,479.2c-0.5,1.2-1.1,2.3-1.8,3.3l-5.1-5.4L879.8,479.2z"/>
			<path id="XMLID_210_" class="st3" d="M869.3,477.3c0.2-0.1,0.4-0.3,0.6-0.4c0.2-0.2,0.3-0.3,0.5-0.5l1.8,0.6l5.6,5.9
				c-0.5,0.6-1.1,1.3-1.7,1.8c-0.2,0.2-0.4,0.4-0.6,0.6l-5.7-6.1L869.3,477.3z"/>
			<path id="XMLID_209_" class="st3" d="M866.7,478.2c0.5,0,0.9-0.1,1.4-0.3l1.3,1.4l1.9,8.3c-1.1,0.4-2.1,0.7-3.2,0.9l-2-8.4
				L866.7,478.2z"/>
			<path id="XMLID_208_" class="st3" d="M875.1,485.4c-1.1,0.8-2.2,1.5-3.5,2l-1.8-7.6L875.1,485.4z"/>
			<path id="XMLID_207_" class="st3" d="M835.1,419.2l-4.7,4.4l1.9-6.1C833.3,417.9,834.2,418.5,835.1,419.2z"/>
			<path id="XMLID_206_" class="st3" d="M829,416.3c1,0.2,2,0.5,2.9,1l-2.1,6.8l-1.4,1.3c-0.2-0.1-0.4-0.2-0.6-0.2L829,416.3z"/>
			<path id="XMLID_205_" class="st3" d="M819.7,430l1.1-0.2c0,0.2,0,0.4,0,0.6L819.7,430z"/>
			<path id="XMLID_204_" class="st3" d="M861.1,477c0.6,0.5,1.1,0.6,1.4,0.6l-0.4,1.3l-6.5,6c-0.4-0.3-0.7-0.6-1-1
				c-0.4-0.5-0.9-1-1.2-1.5l6.4-6l0.4-0.1C860.5,476.4,860.7,476.6,861.1,477z"/>
			<path id="XMLID_203_" class="st3" d="M825,416c0.7,0,1.3,0,2,0l-0.8,5.4L825,416z"/>
			<path id="XMLID_202_" class="st3" d="M830.8,427.5l1.1-0.2l-0.8,0.7l0,0C831,427.8,830.9,427.6,830.8,427.5z"/>
			<path id="XMLID_201_" class="st3" d="M823.5,435l-0.8,0.7l0.3-1C823.2,434.8,823.4,434.9,823.5,435z"/>
			<path id="XMLID_200_" class="st3" d="M817.7,418.2c1-0.6,2.1-1.1,3.2-1.5l1.5,6.5L817.7,418.2z"/>
			<path id="XMLID_199_" class="st3" d="M840.7,428.7l-7.3,1.7l-0.4-0.1c2-0.7,4.9-1.7,7.5-2.6C840.6,427.9,840.6,428.3,840.7,428.7
				z"/>
			<path id="XMLID_198_" class="st3" d="M825.8,424.3l-0.2,0.6c-0.5,0-0.9,0.1-1.4,0.3l-1.3-1.4l-1.7-7.2c1.1-0.3,2.2-0.5,3.3-0.6
				l1.5,6.5L825.8,424.3z"/>
			<path id="XMLID_197_" class="st3" d="M823.9,425.4c-0.2,0.1-0.3,0.2-0.5,0.3l-0.2-1.1L823.9,425.4z"/>
			<path id="XMLID_196_" class="st3" d="M820.7,426.8l1.1,0.3c-0.1,0.2-0.2,0.3-0.3,0.5L820.7,426.8z"/>
			<path id="XMLID_195_" class="st3" d="M865.8,467l-0.2,0.6c-0.5,0-0.9,0.1-1.4,0.3l-1.3-1.4l-1.7-7.2c1.1-0.3,2.2-0.5,3.3-0.6
				l1.5,6.5L865.8,467z"/>
			<path id="XMLID_194_" class="st3" d="M872.7,447.4c0.2,0.4,0.3,1,0.4,1.3c-0.2,0.1-0.6,0.2-1.1,0.2c0-0.2,0-0.7-0.2-1.2
				C872,447.6,872.4,447.5,872.7,447.4z"/>
			<path id="XMLID_193_" class="st3" d="M853,413.6c-0.1,0-0.2,0-0.3,0.1c0.4-0.3,0.7-0.5,1-0.5c0,0,0,0,0,0.1
				c0,0.1,0.4,0.2,0.7,0.3c-0.1,0.1-0.3,0.3-0.5,0.5c0,0-0.1-0.1-0.1-0.1C853.6,413.7,853.3,413.6,853,413.6z"/>
			<path id="XMLID_192_" class="st3" d="M871.4,447.9c0,0,0.1-0.1,0.2-0.1c0.2,0.4,0.2,0.9,0.2,1.1c-0.1,0-0.2,0-0.3,0
				C871.5,448.7,871.5,448.3,871.4,447.9C871.4,447.9,871.4,447.9,871.4,447.9z"/>
			<path id="XMLID_191_" class="st3" d="M862.4,465.9l-4.7-5c1-0.6,2.1-1.1,3.2-1.5L862.4,465.9z"/>
			<path id="XMLID_190_" class="st3" d="M871.3,448.9c-0.5,0-1,0-1.4-0.2c0.3-0.2,0.8-0.5,1.3-0.8
				C871.3,448.4,871.3,448.8,871.3,448.9z"/>
			<path id="XMLID_189_" class="st3" d="M853.7,459.2c0.1-0.3,0.1-0.5,0.1-0.8l0.7,0.7c-0.2,0.1-0.3,0.3-0.5,0.4L853.7,459.2z"/>
			<path id="XMLID_188_" class="st3" d="M854.1,414.2c0.2-0.3,0.4-0.5,0.6-0.6c0.2,0.1,0.4,0.1,0.4,0.2c0.1,0.1,0.2,0.6,0.2,0.8
				c0,0.1-0.4,0.2-0.7,0.2C854.5,414.6,854.3,414.4,854.1,414.2z"/>
			<path id="XMLID_187_" class="st3" d="M855.2,457c0.4-0.3,1.7-0.9,1.7-0.9s0.6,0.4,1.2,0.8c-1.1,0.5-2.2,1.1-3.2,1.9l-0.9-0.9
				C854.6,457.5,854.9,457.2,855.2,457z"/>
			<path id="XMLID_186_" class="st3" d="M852.7,415c-0.5,0.3-0.8,0.8-1.1,1.6c0-0.7,0.1-1.3,0.3-1.8c0.5-0.7,0.9-0.9,1.2-1
				c0.2,0,0.5,0.1,0.7,0.3c0,0,0.1,0.1,0.1,0.1c-0.1,0.2-0.2,0.3-0.3,0.5C853.2,414.8,852.9,414.8,852.7,415z"/>
			<path id="XMLID_185_" class="st3" d="M855.1,417.4c-0.4-0.3-0.8-0.6-1.4-1c-0.2-0.1-0.4-0.2-0.5-0.3c0.1-0.4,0.3-0.8,0.5-1.1
				c0.1,0,0.2,0,0.3,0c0.1,0.2,0.7,0.8,0.8,0.9c0.1,0.1,0,0.4,0.2,0.6c0.2,0.2,0.9,0.9,0.9,0.9C855.8,417.5,855.3,417.4,855.1,417.4
				z"/>
			<path id="XMLID_183_" class="st3" d="M853.8,414.8c0.1-0.1,0.2-0.3,0.3-0.4c0.1,0.2,0.3,0.3,0.4,0.4c-0.1,0-0.2,0-0.2,0.1
				C854,414.8,853.9,414.8,853.8,414.8z"/>
			<path id="XMLID_180_" class="st3" d="M839.1,425.2l-5.9,1.3l4.8-4.4c0.7,0.9,1.2,1.9,1.7,2.9L839.1,425.2z"/>
			<path id="XMLID_178_" class="st3" d="M826.7,435.6c0.5,0,0.9-0.1,1.4-0.3l1.3,1.4l1.9,8.3c-1.1,0.4-2.1,0.7-3.2,0.9l-2-8.4
				L826.7,435.6z"/>
			<path id="XMLID_177_" class="st3" d="M835.1,442.8c-1.1,0.8-2.2,1.5-3.5,2l-1.8-7.6L835.1,442.8z"/>
			<path id="XMLID_175_" class="st3" d="M829.3,434.6c0.2-0.1,0.4-0.3,0.6-0.4c0.2-0.2,0.3-0.3,0.5-0.5l1.8,0.6l5.6,5.9
				c-0.5,0.6-1.1,1.3-1.7,1.8c-0.2,0.2-0.4,0.4-0.6,0.6l-5.7-6.1L829.3,434.6z"/>
			<path id="XMLID_174_" class="st3" d="M831.1,432.5c0.2-0.4,0.3-0.9,0.4-1.4l1.9-0.4l7.4,2.2c-0.1,1.1-0.4,2.2-0.8,3.2l-7.6-2.3
				L831.1,432.5z"/>
			<path id="XMLID_173_" class="st3" d="M816,442.5l6-5.5l-2.4,7.7C818.3,444.1,817.1,443.4,816,442.5z"/>
			<path id="XMLID_172_" class="st3" d="M825.7,437.4l-2.6,8.4c-1.1-0.2-2.2-0.5-3.2-0.9l2.6-8.4l1.4-1.3c0.4,0.2,0.9,0.3,1.4,0.4
				L825.7,437.4z"/>
			<path id="XMLID_171_" class="st3" d="M827.7,445.9c-1.4,0.2-2.8,0.2-4.2,0l2.4-7.7L827.7,445.9z"/>
			<path id="XMLID_170_" class="st3" d="M839.8,436.6c-0.5,1.2-1.1,2.3-1.8,3.3l-5.1-5.4L839.8,436.6z"/>
			<path id="XMLID_169_" class="st3" d="M825.9,436.7l-0.2-1.1c0.2,0,0.4,0,0.6,0L825.9,436.7z"/>
			<path id="XMLID_168_" class="st3" d="M832.6,430.5l-1.1,0.2c0,0,0,0,0,0c0.2-0.1,0.5-0.2,0.8-0.3L832.6,430.5z"/>
			<path id="XMLID_167_" class="st3" d="M831.7,433.7l-1.1-0.3c0.1-0.2,0.2-0.3,0.3-0.5L831.7,433.7z"/>
			<path id="XMLID_166_" class="st3" d="M828.5,435.1c0.2-0.1,0.3-0.2,0.5-0.3l0.2,1.1L828.5,435.1z"/>
			<polygon id="XMLID_165_" class="st3" points="832,427.7 832.6,427.1 835.8,426.4 			"/>
			<path id="XMLID_164_" class="st3" d="M812.4,423.9c0.6-1.1,1.3-2.1,2.2-3l4.9,5.2L812.4,423.9z"/>
			<path id="XMLID_163_" class="st3" d="M821.2,428c-0.2,0.4-0.3,0.9-0.4,1.4l-1.9,0.4l-7.9-2.4c0.3-1.1,0.7-2.1,1.2-3.1l7.7,2.4
				L821.2,428z"/>
			<path id="XMLID_162_" class="st3" d="M810.6,431.7c-0.1-1.3,0-2.6,0.3-3.9l7.2,2.2L810.6,431.7z"/>
			<path id="XMLID_161_" class="st3" d="M817.4,418.5l5.2,5.6l0.4,1.9c-0.2,0.1-0.4,0.3-0.6,0.4c-0.2,0.2-0.3,0.3-0.5,0.5l-1.8-0.6
				l-5.3-5.7c0.2-0.2,0.4-0.4,0.6-0.6C816,419.4,816.7,418.9,817.4,418.5z"/>
			<path id="XMLID_160_" class="st3" d="M822.2,433.9c0.2,0.2,0.3,0.3,0.5,0.5l-0.6,1.8l-6.5,6c-0.4-0.3-0.7-0.6-1-1
				c-0.4-0.5-0.9-1-1.2-1.5l6.4-6l1.9-0.4C821.9,433.6,822,433.7,822.2,433.9z"/>
			<path id="XMLID_159_" class="st3" d="M820.4,433.3l0.8-0.7c0.1,0.2,0.2,0.3,0.3,0.5L820.4,433.3z"/>
			<path id="XMLID_158_" class="st3" d="M828.8,425.6l0.8-0.7l-0.3,1C829.1,425.7,829,425.6,828.8,425.6z"/>
			<path id="XMLID_157_" class="st3" d="M820.8,430.8c0,0.5,0.2,0.9,0.3,1.4l-1.4,1.3l-8.4,1.9c-0.3-1.1-0.5-2.2-0.6-3.3l8.3-1.9
				L820.8,430.8z"/>
			<path id="XMLID_156_" class="st3" d="M837.7,421.8l-5.3,4.9l-1.9,0.4c-0.1-0.2-0.3-0.4-0.5-0.6c-0.2-0.2-0.3-0.3-0.5-0.5l0.6-1.8
				l5.2-4.8c0.5,0.4,1,0.8,1.4,1.3C837.1,421.1,837.4,421.5,837.7,421.8z"/>
			<path id="XMLID_155_" class="st3" d="M813.2,439.4c-0.8-1.2-1.4-2.4-1.8-3.7l7.8-1.8L813.2,439.4z"/>
			<path id="XMLID_154_" class="st3" d="M853.1,473.7l-2.5,0.6c-0.1-1.3,0-2.6,0.3-3.9l0.2,0.1L853.1,473.7z"/>
			<path id="XMLID_153_" class="st3" d="M862.9,468l0.1,0.4c-0.1,0.1-0.2,0.2-0.3,0.3l-6.4-6.9c0.2-0.1,0.3-0.3,0.5-0.4L862.9,468z"
				/>
			<path id="XMLID_152_" class="st3" d="M868.5,451.7c0,0-0.1-0.1-0.1-0.1c-0.1-0.2,0-1.1,0.1-1.7
				C868.9,450.6,868.7,451.3,868.5,451.7z"/>
			<polygon id="XMLID_151_" class="st3" points="871.5,446.3 871.1,446.6 870.9,446.2 			"/>
			<path id="XMLID_150_" class="st3" d="M869.4,447c-0.1-0.1-0.5-0.5-0.5-0.6c0.1-0.1,1.2,0,1.2,0l0.1,0.5
				C870.3,446.9,869.5,447.1,869.4,447z"/>
			<path id="XMLID_149_" class="st3" d="M852.4,466.5c0.2-0.4,0.4-0.7,0.7-1.1l3.5,2.4L852.4,466.5z"/>
			<path id="XMLID_148_" class="st3" d="M869.2,452.3c-0.2-0.2-0.4-0.3-0.5-0.5c0.3-0.5,0.5-1.3,0-2.1l-0.1,0.1
				c0-0.2,0.1-0.4,0.2-0.4c0.1,0.2,0.2,0.4,0.3,0.6C869.4,450.7,869.3,451.7,869.2,452.3z"/>
			<path id="XMLID_147_" class="st3" d="M855.5,478.8c0.2,0.5,0.5,0.2,0.9-0.1c0.2-0.1,1.3-0.9,2.2-1.6l-5.3,4.9
				c-0.8-1.2-1.4-2.4-1.8-3.7l3.7-0.8C855.1,477.9,855.4,478.4,855.5,478.8z"/>
			<path id="XMLID_146_" class="st3" d="M877.7,464.5l-5.3,4.9l-1.9,0.4c-0.1-0.2-0.3-0.4-0.5-0.6c-0.2-0.2-0.3-0.3-0.5-0.5l0.6-1.8
				l5.2-4.8c0.5,0.4,1,0.8,1.4,1.3C877.2,463.7,877.5,464.1,877.7,464.5z"/>
			<path id="XMLID_145_" class="st3" d="M868.8,468.2l0.8-0.7l-0.3,1C869.1,468.4,869,468.3,868.8,468.2z"/>
			<path id="XMLID_144_" class="st3" d="M855.1,477.1C855.1,477.1,855.1,477.1,855.1,477.1l-3.9,0.9c-0.3-1.1-0.5-2.2-0.6-3.3
				l2.7-0.6L855.1,477.1z"/>
			<path id="XMLID_143_" class="st3" d="M861.1,470.9c-0.1,0.4-0.2,0.7-0.3,1.1l-1.9,0.4l-7.7-2.3l-0.2-0.3c0.3-1,0.6-2,1.1-2.9
				l5.4,1.7L861.1,470.9z"/>
			<path id="XMLID_142_" class="st3" d="M862.9,440.5l-1.5-4.2l1.7,3.9C863.1,440.3,863,440.4,862.9,440.5z"/>
			<path id="XMLID_141_" class="st3" d="M851.8,418.2c-0.1-0.3-0.2-0.7-0.2-1c0.2-1,0.6-1.7,1.1-2c0.2-0.1,0.4-0.2,0.7-0.2
				c-0.2,0.3-0.3,0.6-0.4,1c-0.3-0.1-0.5-0.1-0.6,0c-0.3,0.2-0.4,0.7-0.2,1.6c0.2,1.1,1,3.3,1.3,3.9l-0.2,0.1l0.1-0.1
				C853.3,421.5,852.3,419.9,851.8,418.2z"/>
			<path id="XMLID_140_" class="st3" d="M853.1,416.4c0,0,0-0.1,0-0.1c0.1,0.1,0.3,0.2,0.5,0.3c0.6,0.4,1.1,0.8,1.4,1
				c0,0.2,0,0.4,0,0.5c0,0.2,0.8,0.5,0.8,0.7c0,0.1-0.6,0.5-0.7,0.6c-0.1,0.2-0.2,0.8,0,0.9c0.2,0.1,0.6,0.3,0.6,0.3l0.1,0.1l-2,0.6
				C853.6,420.8,852.4,418.5,853.1,416.4z"/>
			<path id="XMLID_139_" class="st3" d="M852.5,416.2c0.1-0.1,0.3-0.1,0.5,0c0,0,0,0.1,0,0.1c-0.6,2.2,0.5,4.4,0.9,5.1l-0.2,0.1
				c-0.2-0.6-1.1-2.7-1.3-3.8C852.2,416.8,852.3,416.3,852.5,416.2z"/>
			<path id="XMLID_138_" class="st3" d="M851.6,418.2c0.4,1.7,1.4,3.2,1.5,3.4l-0.7,0.2c-0.3-0.7-0.9-2.5-0.9-3.9
				C851.6,418,851.6,418.1,851.6,418.2z"/>
			<path id="XMLID_137_" class="st3" d="M843.8,422c0.7-0.6,2.1-1.6,3.4-2.1c1.9-0.8,3.2-2.3,3.8-3.5c0.2-0.4,0.3-0.7,0.5-0.9
				c-0.1,0.5-0.1,1.1-0.1,1.7c-0.3,1.4,0.6,3.9,0.9,4.7l-2.4,0.8l-1.3-0.7l-4,1.4C844.4,423,844.1,422.4,843.8,422z"/>
			<path id="XMLID_136_" class="st3" d="M859.2,416.6c0.1-0.1,0.9,0.1,1,0c0.2-0.1,0.6-0.2,0.6-0.2c0.1,0.1,0.1,0.7,0.2,0.7
				c0.1,0,0.4-0.3,0.4-0.5c0-0.2,0.1-0.3,0.2-0.3c0.2,0,0.4,0,0.4-0.1c0-0.1,0.1-0.2,0.4-0.2c0.3,0,1.4,0.1,2.6,0.2
				c1.2,0.1,5.3,0.9,6.2,0.7c0.8-0.1,1.8-0.4,2.8-0.3s3,0,4.1-0.1c1.1-0.1,3-0.4,3.1-0.3c0.1,0.1-0.8,0.8-2.6,0.9
				c-1.8,0.2-3.7,0.1-5.9,0.8c-2.1,0.7-8.3,2.1-8.6,2.1c-0.3,0-0.7-0.5-1-0.4c-0.3,0.1-1.3,0-1.7-0.4c-0.4-0.4-0.2-0.7-0.3-1
				c-0.1-0.3-0.7-1.5-0.9-1.5c-0.2,0-0.4,0.2-0.3,0.4c0.1,0.2,0.4,0.6,0.3,0.7c-0.1,0.1-0.5,0.1-0.5,0
				C859.7,417.9,859.1,416.7,859.2,416.6z"/>
			<path id="XMLID_135_" class="st3" d="M869.8,426.3c-1.6-0.6-3-0.4-4.5,0.4c-1.5,0.8-2.3,3.7-2.4,4.7c-0.1,0.7,0,2.3,0.1,3.2
				l-5.2-11.9c0.1-0.1,0.3-0.1,0.4-0.1c0.3,0.2,0.6,0.4,0.7,0.5c0.5,0.3,1.7-0.2,2.1-0.2c0.4,0,1.7,0,2.5-0.1c0,0.3-0.1,0.4-0.3,0.5
				c-0.1,0.1-0.2,0.1-0.2,0.2c-0.1,0.3,0.1,0.7,0.1,0.8l0.2-0.1c-0.1-0.2-0.2-0.5-0.1-0.7c0,0,0.1-0.1,0.1-0.1
				c0.2-0.1,0.4-0.2,0.4-0.6c0,0,0,0,0.1,0c0.7,0,7.3,0.4,8.6,0.4c1.3,0,3.2-0.2,3.9-0.3c0.7-0.1,2.6-0.7,3.7-0.9
				c1.1-0.2,2.4-0.9,2.5-0.6c0.1,0.3-0.9,2-1.2,2.4c-0.3,0.4-0.9,2.2-0.9,2.8c0,0.6-0.1,2.4-0.5,2.5c-0.5,0.1-4-1.3-5.1-1.8
				C873.5,426.9,871.5,426.9,869.8,426.3z"/>
			<path id="XMLID_134_" class="st3" d="M840.8,429c0.2,1.2,0.2,2.4,0.1,3.5l-6.7-2L840.8,429z"/>
			<path id="XMLID_133_" class="st3" d="M848.4,462.8c0.7,0.1,1.4,0,2.1-0.2l0.2,0.3c-0.7,1-1.3,2.1-1.8,3.2l-1.6-2.6
				c0.4,0,0.7-0.3,1-0.5C848.4,462.9,848.4,462.9,848.4,462.8z"/>
			<polygon id="XMLID_132_" class="st3" points="855.7,425.4 855.9,423.8 857.5,427.4 			"/>
			<path id="XMLID_131_" class="st3" d="M860.4,433.9l2.4,6.8c-0.4,0.5-0.8,1-1,1.3c-0.6,0.9-1.6,2.1-2.6,3.1c-1,1-3,3-3.3,3.4
				c-0.3,0.4-1.1,1.7-1.5,2c-0.3,0.2-0.8,1-1.1,1.4c-0.5-0.5-1.2-0.8-1.9-0.9l1-5.9c0.2,0.2,0.4,0.4,0.4,0.4c0.1,0,0.1-0.5,0.1-0.7
				c0-0.1,0.2-0.2,0.4-0.2l0,0.1c-0.1,0.4,0.2,0.8,0.7,0.9l2.3,0.4c0.4,0.1,0.9-0.2,0.9-0.7l1.1-7.2c0,0,0,0,0,0l0.2,0l0.3-1.7
				c0.1-0.5-0.3-0.9-0.7-1l-0.9-0.1l0.1-0.7c0-0.2-0.1-0.4-0.3-0.4c-0.2,0-0.4,0.1-0.4,0.3l-0.1,0.7l-0.9-0.1
				c-0.5-0.1-0.9,0.3-1,0.7l-0.3,1.7l0.2,0c0,0,0,0,0,0l-0.2,1.1c-0.3,0.1-0.6,0.3-0.8,0.6l2.3-13.6l2.2,2.3L860.4,433.9z"/>
			<path id="XMLID_25_" class="st7" d="M813.2,417.6c-7.4,6.9-7.9,18.5-0.9,25.8c6.9,7.4,18.6,7.8,26.1,0.9
				c5.1-4.7,6.9-11.6,5.3-17.9c1.7-0.6,2.9-1,3-1c0.5-0.1,0.6,0.4,1.4,0.2c0.8-0.2,1.4-0.7,2.5-0.6c0.2,0,0.3-0.1,0.4-0.2
				c0,0,0.4-0.2,0.8-0.1c0.1,0,0.6-0.1,1.2-0.3l-4.8,28c-0.2,0.3-0.4,0.7-0.4,1c-0.7,0.2-1.4,0.6-2,1.1c-0.5,0.4-0.8,0.9-1.1,1.5
				c-0.2,0-0.5,0-0.7,0c-0.2,0-0.5,0.2-0.6,0.3c-0.1,0.1-0.5,0.1-0.5,0c-0.1-0.1,0.1-0.3,0.1-0.3c0-0.1-1.2-0.5-1.2-0.5
				c-0.1,0-0.1,0.2-0.3,0.3c-0.2,0.1-0.4-0.3-1.8-1.3c-1.4-1-2,0.1-2,0.4c-0.1,0.3,0.2,0.7,0.3,0.7c0.1,0.1,0.2,1.3,0.3,1.5
				c0.1,0.3,0.6,0.6,0.6,0.6l-0.7,0.2c0,0,0.2,1.4,0.3,1.6c0.1,0.2,0.5,0,0.6,0.1c0.1,0.1,0.1,0.9,0.3,1.1c0.2,0.2,1,0.2,1.3,0.2
				c0.2,0,0.3-0.1,0.3-0.1s0.1,0.1,0.1,0.1c0.1,0.1,0.6,0.1,0.7,0.1c0.1,0,0.1-0.3,0.1-0.3s0.3,0.1,0.6,0.3c0.3,0.2,0.9,0.4,0.9,0.4
				s1.2,0.9,2.5,1.8c0.5,0.3,0.9,0.5,1.2,0.5l1.8,3c-2.7,6.4-1.6,14.2,3.5,19.6c6.9,7.4,18.6,7.8,26.1,0.9
				c7.4-6.9,7.9-18.4,0.9-25.8c-2.7-2.9-6.2-4.7-9.8-5.5c0.2-0.6,0.5-2,0.5-2.4c0-0.3-0.3-0.5-0.6-0.8c0.1-0.6,0.3-1.8-0.1-2.6
				c-0.1-0.3-0.2-0.5-0.4-0.6c0.2-0.1,0.6-0.2,0.9-0.3c1.2,0.6,3,0.1,3.5,0c0.3,0.1,0.9,0,0.9-0.2c0-0.1-0.4-1.3-0.5-1.6
				c0,0,0.1,0,0.1,0c0.1,0,0.7,0.2,0.7,0.2s0-0.7,0.2-0.7c0.1-0.1,2.9-1.2,3.8-1.5c0.9-0.3,3.9-0.5,4.3-0.5c0.4,0,2.3,0.7,4,1.4
				c1.7,0.8,3.5,0.6,4.7-0.3c1.2-0.9,2.2-2.4,2.2-2.4l0.6,0c0,0,1.2-1.5,2.2-3.7c1.4,0.3,3.6-0.1,4.9-1.6c0.2-0.2,0.2-0.6,0.4-0.9
				c0.7-0.8,3.6-1.3,3.7-2.8c1-0.7,1-1.5,1.4-2.4c0.2-0.6,0.5-1.2,0.7-1.6c0.2-0.8-0.1-1.7,0.3-2.3c0.2-0.2,0.3-0.1,0.5-0.3
				c0-0.8,0.1-1.6-0.2-2.5c-0.2-0.3-0.5,0.2-0.7,0.1c-0.1-0.5,0.3-0.9,0.2-1.3c-0.4-0.4-1-0.3-1-0.9c0.5-0.3,1-0.2,1.6-0.8
				c0.4-0.9-0.5-1.4-0.9-2.2c-0.4-0.7-0.3-1.5-0.5-2.1c-1.2,0-1.6-2.2-2.9-1.9c-0.6,0.4-0.5,0.9-1.1,1.3c-0.7-0.4-0.4-1.5-1.2-2.2
				c-0.5-0.1-2.4-0.6-3-1.3c-0.2-1-0.3-1.6-0.2-2.1c0.1-0.8-0.8-1.9-0.9-2.2c-0.1-0.2,0.2-0.6,0.2-0.9c0-0.3,0.6-0.6,1.1-0.9
				c0.5-0.3,0.8,0.2,0.9,0.3c0.1,0.1,0.8,0,1.3-0.1c0.4-0.1,0.9-0.5,1.1-1.2c0.2-0.7,0.6-0.9,0.9-1.2c0.3-0.3,0.8-0.9,0.8-1.4
				c0-0.5,0.6-0.9,0.7-1.2c0.1-0.4-1.3-3.9-3.5-5.8c-2.2-1.9-5.3-2-6.6-1.9c-1.3,0.1-2.6,0.1-2.8,0.2c-0.2,0.1,0.2,0.8,0.4,1
				c0.2,0.3,0.8,1.8,0.8,1.8s-0.4,0.4-0.8,0.8c-0.5,0.4-1.3,0.8-1.8,0.9c-0.5,0.1-0.6,0.5-0.5,0.7c0.1,0.3,0.3,0.6,0,0.7
				c-0.3,0.1-0.7,0.4-0.7,0.7c0.1,0.2-0.2,0.6-0.4,0.8c-0.2,0.2-0.2,0.6-0.3,0.8c-0.1,0.2-0.7,0.6-0.7,1.1c-0.1,0.5,0.5,1,1.1,1.6
				c0.6,0.5,0.6,1.3,0.7,1.8c0,0.5-0.3,0.7-0.4,0.9c-0.1,0.2,0.1,0.7-0.3,0.6c-0.4-0.1-1.4,0.1-2.8,0.2c-1.4,0.1-5.6,1.8-7.1,2
				c-1.5,0.2-3.5-0.1-4.6-0.2c-1.1,0-11.7,1.8-11.7,1.8l-0.3-0.3c0,0-1.6,0.2-1.8,0c-0.3-0.2-0.4-0.5-0.6-0.7
				c-0.2-0.2-0.7-0.3-0.9-0.5c-0.2-0.2-0.6-0.3-0.9-0.2c-0.3,0.1-0.5,0.3-0.6,0.5c-0.1,0.1-0.5,0.1-0.7,0.2
				c-0.2,0.1-0.5,0.2-0.7,0.2c-0.2,0-0.5,0.3-0.6,0.3c-0.1,0.1-1.1-0.1-1.2,0c-0.1,0-0.1,0.1-0.1,0.2c-0.4,0.1-0.9,0.3-1.4,0.8
				c-0.2,0.2-0.4,0.5-0.6,0.9c-0.3,0.4-0.6,0.9-0.9,1.6c-0.6,1.2-1.8,2.7-3.7,3.4c-1.3,0.5-2.7,1.6-3.5,2.2
				c-0.1-0.1-0.1-0.1-0.2-0.1c-0.3-0.1-1,0.4-1.4,0.8c-0.8-1.4-1.7-2.8-2.9-4C832.3,411.1,820.6,410.7,813.2,417.6z M820.9,416.7
				l1.5,6.5l-4.7-5C818.7,417.6,819.8,417.1,820.9,416.7z M824.6,416l1.5,6.5l-0.3,1.8l-0.2,0.6c-0.5,0-0.9,0.1-1.4,0.3l-1.3-1.4
				l-1.7-7.2C822.3,416.3,823.5,416.1,824.6,416z M823.4,425.6l-0.2-1.1l0.8,0.8C823.7,425.5,823.5,425.5,823.4,425.6z M821.7,427.2
				c-0.1,0.2-0.2,0.3-0.3,0.5l-0.8-0.8L821.7,427.2z M827,416l-0.8,5.4L825,416C825.6,416,826.3,416,827,416z M830.4,423.5l1.9-6.1
				c1,0.5,1.9,1.1,2.8,1.8L830.4,423.5z M828.4,425.4c-0.2-0.1-0.4-0.2-0.6-0.2l1.2-8.8c1,0.2,2,0.5,2.9,1l-2.1,6.8L828.4,425.4z
				 M820.7,430.3l-1.1-0.3l1.1-0.2C820.7,430,820.7,430.2,820.7,430.3z M831.1,428L831.1,428c-0.1-0.2-0.2-0.3-0.3-0.5l1.1-0.2
				L831.1,428z M822.7,435.7l0.3-1c0.2,0.1,0.3,0.2,0.5,0.3L822.7,435.7z M840.5,427.6c0.1,0.4,0.2,0.7,0.2,1.1l-7.3,1.7l-0.4-0.1
				C835,429.5,837.9,428.5,840.5,427.6z M854,414.1c0,0-0.1-0.1-0.1-0.1c-0.3-0.3-0.5-0.4-0.8-0.3c-0.1,0-0.2,0-0.3,0.1
				c0.4-0.3,0.7-0.5,1-0.5c0,0,0,0,0,0.1c0,0.1,0.4,0.2,0.7,0.3C854.3,413.7,854.2,413.8,854,414.1z M853.9,414.2
				c-0.1,0.2-0.2,0.3-0.3,0.5c-0.3,0-0.6,0.1-0.9,0.2c-0.5,0.3-0.8,0.8-1.1,1.6c0-0.7,0.1-1.3,0.3-1.8c0.5-0.7,0.9-0.9,1.2-1
				c0.2,0,0.5,0.1,0.7,0.3C853.8,414.1,853.8,414.2,853.9,414.2z M854.6,414.8c-0.1-0.2-0.3-0.3-0.5-0.6c0.2-0.3,0.4-0.5,0.6-0.6
				c0.2,0.1,0.4,0.1,0.4,0.2c0.1,0.1,0.2,0.6,0.2,0.8C855.3,414.7,855,414.7,854.6,414.8z M854.4,414.8c-0.1,0-0.2,0-0.2,0.1
				c-0.1,0-0.3-0.1-0.4-0.1c0.1-0.1,0.2-0.3,0.3-0.4C854.2,414.5,854.3,414.7,854.4,414.8z M855.1,417.4c-0.4-0.3-0.8-0.6-1.4-1
				c-0.2-0.1-0.4-0.2-0.5-0.3c0.1-0.4,0.3-0.8,0.5-1.1c0.1,0,0.2,0,0.3,0c0.1,0.2,0.7,0.8,0.8,0.9c0.1,0.1,0,0.4,0.2,0.6
				c0.2,0.2,0.9,0.9,0.9,0.9C855.8,417.5,855.3,417.4,855.1,417.4z M854,457.8c0.5-0.4,0.9-0.6,1.1-0.8c0.4-0.3,1.7-0.9,1.7-0.9
				s0.6,0.4,1.2,0.8c-1.1,0.5-2.2,1.1-3.2,1.9L854,457.8z M854.5,459.1c-0.2,0.1-0.3,0.3-0.5,0.4l-0.3-0.3c0.1-0.3,0.1-0.5,0.1-0.8
				L854.5,459.1z M871.9,448.9c0-0.2,0-0.7-0.2-1.2c0.3-0.1,0.6-0.2,1-0.3c0.2,0.4,0.3,1,0.4,1.3
				C872.8,448.7,872.4,448.8,871.9,448.9z M871.3,447.9C871.4,447.9,871.4,447.9,871.3,447.9c0.1,0,0.1-0.1,0.2-0.1
				c0.2,0.4,0.2,0.9,0.2,1.1c-0.1,0-0.2,0-0.3,0C871.5,448.7,871.5,448.3,871.3,447.9z M869.9,448.8c0.3-0.2,0.8-0.5,1.3-0.8
				c0.1,0.4,0.1,0.8,0.1,1C870.8,449,870.3,448.9,869.9,448.8z M864.6,458.6l1.5,6.5l-0.3,1.8l-0.2,0.6c-0.5,0-0.9,0.1-1.4,0.3
				l-1.3-1.4l-1.7-7.2C862.4,458.9,863.5,458.7,864.6,458.6z M857.7,460.9c1-0.6,2.1-1.1,3.2-1.5l1.5,6.5L857.7,460.9z M862.6,466.6
				l0.1,0.5l-5.5-5.9c0.1,0,0.1-0.1,0.2-0.1L862.6,466.6z M863.9,468c-0.1,0-0.2,0.1-0.2,0.1l-0.4-0.4l-0.1-0.5L863.9,468z
				 M867,458.6l-0.8,5.4l-1.3-5.4C865.6,458.6,866.3,458.6,867,458.6z M870.4,466.2l1.9-6.1c1,0.5,1.9,1.1,2.8,1.8L870.4,466.2z
				 M868.4,468c-0.2-0.1-0.4-0.2-0.6-0.2l1.2-8.8c1,0.2,2,0.5,2.9,1l-2.1,6.8L868.4,468z M858.9,472.8l1.8,0.6c0,0.1,0,0.2,0,0.4
				c-1.1,0.9-2.8,2.4-3.2,2.7c0,0,0,0-0.1,0l-0.3,0.1c-0.2-0.1-0.4-0.5-0.6-0.6c-0.2-0.1-0.9,0.6-1.3,0.9l-1.7-2.9L858.9,472.8z
				 M853.4,473.7l-1.9-3.1l6.6,2L853.4,473.7z M859.7,472.6l1.1-0.2c0,0.2,0,0.4,0,0.6L859.7,472.6z M871.1,470.6
				c-0.1-0.2-0.2-0.3-0.3-0.5l1.1-0.2L871.1,470.6z M862.7,478.3l0.3-0.9c0,0,0.1,0.2,0.3,0.4L862.7,478.3z M880.8,475.2l-6.7-2
				l6.6-1.5C880.9,472.8,880.9,474,880.8,475.2z M880,478.8l-7.6-2.3l-1.3-1.4c0.2-0.4,0.3-0.9,0.4-1.4l1.9-0.4l7.4,2.2
				C880.6,476.7,880.4,477.8,880,478.8z M871.6,473.3c0-0.2,0-0.4,0-0.6l1.1,0.3L871.6,473.3z M869,477.5l0.2,1.1l-0.8-0.8
				C868.6,477.7,868.8,477.6,869,477.5z M870.6,476c0.1-0.2,0.2-0.3,0.3-0.5l0.8,0.8L870.6,476z M878,482.5l-5.1-5.4l6.9,2.1
				C879.4,480.3,878.8,481.4,878,482.5z M875.4,485.2l-5.7-6.1l-0.4-1.9c0.2-0.1,0.4-0.3,0.6-0.4c0.2-0.2,0.3-0.3,0.5-0.5l1.8,0.6
				l5.6,5.9c-0.5,0.6-1.1,1.3-1.7,1.8C875.9,484.8,875.7,485,875.4,485.2z M871.7,487.4l-1.8-7.6l5.2,5.6
				C874.1,486.3,872.9,486.9,871.7,487.4z M868.1,488.5l-2-8.4l0.6-1.8c0.5,0,0.9-0.1,1.4-0.3l1.3,1.4l1.9,8.3
				C870.3,488,869.2,488.3,868.1,488.5z M866,479.1l0,0.2L866,479.1C865.9,479.1,866,479.1,866,479.1z M863.5,488.5l2.4-7.7l1.8,7.7
				C866.3,488.7,864.9,488.7,863.5,488.5z M861.9,479.6l-2.4,7.7c-1.3-0.6-2.5-1.3-3.6-2.2L861.9,479.6z M863.8,477.8
				C863.9,477.8,863.9,477.8,863.8,477.8c0.3,0,0.4,0.1,0.6,0.2c0.1,0.2,0.2,0.3,0.2,0.4c0.1,0,0.2-0.1,0.2-0.2c0,0,0.1,0,0.1,0
				c0.1,0.2,0.2,0.5,0.4,0.8l0.3,1.1l-2.6,8.4c-1.1-0.2-2.2-0.5-3.2-0.9l2.6-8.4L863.8,477.8z M872.7,469.7l7.2-1.6
				c0.4,1,0.7,2.1,0.9,3.2l-7.3,1.7l-1.8-0.6c0-0.5-0.2-0.9-0.3-1.4L872.7,469.7z M878,464.8c0.7,0.9,1.2,1.9,1.7,2.9l-6.4,1.5
				L878,464.8z M859.9,476.4l0.4-0.1c0.2,0.1,0.5,0.3,0.9,0.7c0.6,0.5,1.1,0.6,1.4,0.6l-0.4,1.3l-6.5,6c-0.4-0.3-0.7-0.6-1-1
				c-0.4-0.5-0.9-1-1.2-1.5L859.9,476.4z M869.6,467.4l-0.3,1c-0.2-0.1-0.3-0.2-0.5-0.3L869.6,467.4z M875.4,462.1
				c0.5,0.4,1,0.8,1.4,1.3c0.3,0.3,0.6,0.7,0.9,1.1l-5.3,4.9l-1.9,0.4c-0.1-0.2-0.3-0.4-0.5-0.6c-0.2-0.2-0.3-0.3-0.5-0.5l0.6-1.8
				L875.4,462.1z M851.4,478.3l3.7-0.8c0.1,0.4,0.3,0.9,0.4,1.3c0.2,0.5,0.5,0.2,0.9-0.1c0.2-0.1,1.3-0.9,2.2-1.6l-5.3,4.9
				C852.4,480.9,851.8,479.6,851.4,478.3z M850.6,474.7l2.7-0.6l1.8,3c0,0,0,0,0,0l-3.8,0.9C850.9,476.9,850.7,475.8,850.6,474.7z
				 M851,470.4l0.2,0.1l2,3.3l-2.5,0.6C850.6,473,850.7,471.7,851,470.4z M852.2,466.9l5.4,1.7l3.5,2.4c-0.1,0.4-0.2,0.7-0.3,1.1
				l-1.9,0.4l-7.7-2.3l-0.2-0.3C851.4,468.8,851.7,467.8,852.2,466.9z M853,465.4l3.5,2.4l-4.2-1.3
				C852.6,466.1,852.8,465.8,853,465.4z M856.3,461.9c0.2-0.1,0.3-0.3,0.5-0.4l6.2,6.6l0.1,0.4c-0.1,0.1-0.2,0.2-0.3,0.3
				L856.3,461.9z M868.5,449.9c0.4,0.7,0.2,1.4,0,1.8c0,0-0.1-0.1-0.1-0.1C868.3,451.4,868.4,450.5,868.5,449.9z M868.7,449.3
				c0.1,0.2,0.2,0.4,0.3,0.6c0.3,0.7,0.3,1.7,0.1,2.3c-0.2-0.2-0.4-0.3-0.5-0.5c0.3-0.5,0.5-1.3,0-2.1l-0.1,0.1
				C868.6,449.6,868.6,449.4,868.7,449.3z M871.1,446.6l-0.3-0.4l0.6,0.1L871.1,446.6z M869.4,447c-0.1-0.1-0.5-0.5-0.5-0.6
				c0.1-0.1,1.2,0,1.2,0l0.1,0.5C870.3,446.9,869.5,447.1,869.4,447z M847.3,463.5c0.4,0,0.7-0.3,1-0.5c0,0,0.1-0.1,0.1-0.1
				c0.7,0.1,1.4,0,2.1-0.2l0.2,0.3c-0.7,1-1.3,2.1-1.8,3.2L847.3,463.5z M874.7,427.4c-1.2-0.5-3.2-0.5-4.8-1.1
				c-1.6-0.6-3-0.4-4.5,0.4c-1.5,0.8-2.3,3.7-2.4,4.7c-0.1,0.7,0,2.3,0.1,3.2l-5.2-11.9c0.1-0.1,0.3-0.1,0.4-0.1
				c0.3,0.2,0.6,0.4,0.7,0.5c0.5,0.3,1.7-0.2,2.1-0.2c0.4,0,1.7,0,2.5-0.1c0,0.3-0.1,0.4-0.3,0.5c-0.1,0.1-0.2,0.1-0.2,0.2
				c-0.1,0.3,0.1,0.7,0.1,0.8l0.2-0.1c-0.1-0.2-0.2-0.5-0.1-0.7c0,0,0.1-0.1,0.1-0.1c0.2-0.1,0.4-0.2,0.4-0.6c0,0,0,0,0.1,0
				c0.7,0,7.3,0.4,8.6,0.4c1.3,0,3.2-0.2,3.9-0.3c0.7-0.1,2.6-0.7,3.7-0.9c1.1-0.2,2.4-0.9,2.5-0.6c0.1,0.3-0.9,2-1.2,2.4
				c-0.3,0.4-0.9,2.2-0.9,2.8c0,0.6-0.1,2.4-0.5,2.5C879.3,429.2,875.8,427.9,874.7,427.4z M863.1,440.2c-0.1,0.1-0.2,0.2-0.2,0.3
				l-1.5-4.2L863.1,440.2z M855.6,425.7l2.2,2.3l2.6,5.9l2.4,6.8c-0.4,0.5-0.8,1-1,1.3c-0.6,0.9-1.6,2.1-2.6,3.1c-1,1-3,3-3.3,3.4
				c-0.3,0.4-1.1,1.7-1.5,2c-0.3,0.2-0.8,1-1.1,1.4c-0.5-0.5-1.2-0.8-1.9-0.9l1-5.9c0.2,0.2,0.4,0.4,0.4,0.4c0.1,0,0.1-0.5,0.1-0.7
				c0-0.1,0.2-0.2,0.4-0.2l0,0.1c-0.1,0.4,0.2,0.8,0.7,0.9l2.3,0.4c0.4,0.1,0.9-0.2,0.9-0.7l1.1-7.2c0,0,0,0,0,0l0.2,0l0.3-1.7
				c0.1-0.5-0.3-0.9-0.7-1l-0.9-0.1l0.1-0.7c0-0.2-0.1-0.4-0.3-0.4c-0.2,0-0.4,0.1-0.4,0.3l-0.1,0.7l-0.9-0.1
				c-0.5-0.1-0.9,0.3-1,0.7l-0.3,1.7l0.2,0c0,0,0,0,0,0l-0.2,1.1c-0.3,0.1-0.6,0.3-0.8,0.6L855.6,425.7z M855.9,423.8l1.6,3.6
				l-1.9-2L855.9,423.8z M859.2,416.6c0.1-0.1,0.9,0.1,1,0c0.2-0.1,0.6-0.2,0.6-0.2c0.1,0.1,0.1,0.7,0.2,0.7c0.1,0,0.4-0.3,0.4-0.5
				c0-0.2,0.1-0.3,0.2-0.3c0.2,0,0.4,0,0.4-0.1c0-0.1,0.1-0.2,0.4-0.2c0.3,0,1.4,0.1,2.6,0.2c1.2,0.1,5.3,0.9,6.2,0.7
				c0.8-0.1,1.8-0.4,2.8-0.3s3,0,4.1-0.1c1.1-0.1,3-0.4,3.1-0.3c0.1,0.1-0.8,0.8-2.6,0.9c-1.8,0.2-3.7,0.1-5.9,0.8
				c-2.1,0.7-8.3,2.1-8.6,2.1c-0.3,0-0.7-0.5-1-0.4c-0.3,0.1-1.3,0-1.7-0.4c-0.4-0.4-0.2-0.7-0.3-1c-0.1-0.3-0.7-1.5-0.9-1.5
				c-0.2,0-0.4,0.2-0.3,0.4c0.1,0.2,0.4,0.6,0.3,0.7c-0.1,0.1-0.5,0.1-0.5,0C859.7,417.9,859.1,416.7,859.2,416.6z M854,421.3
				c-0.3-0.6-1.5-2.8-0.9-4.9c0,0,0-0.1,0-0.1c0.1,0.1,0.3,0.2,0.5,0.3c0.6,0.4,1.1,0.8,1.4,1c0,0.2,0,0.4,0,0.5
				c0,0.2,0.8,0.5,0.8,0.7c0,0.1-0.6,0.5-0.7,0.6c-0.1,0.2-0.2,0.8,0,0.9c0.2,0.1,0.6,0.3,0.6,0.3l0.1,0.1L854,421.3z M853.6,421.4
				c-0.2-0.6-1.1-2.7-1.3-3.8c-0.1-0.8-0.1-1.3,0.2-1.4c0.1-0.1,0.3-0.1,0.5,0c0,0,0,0.1,0,0.1c-0.6,2.2,0.5,4.4,0.9,5.1
				L853.6,421.4z M853.3,421.6L853.3,421.6c0.1-0.1-1-1.6-1.4-3.4c-0.1-0.3-0.2-0.7-0.2-1c0.2-1,0.6-1.7,1.1-2
				c0.2-0.1,0.4-0.2,0.7-0.2c-0.2,0.3-0.3,0.6-0.4,1c-0.3-0.1-0.5-0.1-0.6,0c-0.3,0.2-0.4,0.7-0.2,1.6c0.2,1.1,1,3.3,1.3,3.9
				L853.3,421.6z M852.5,421.8c-0.3-0.7-0.9-2.5-0.9-3.9c0,0.1,0,0.2,0.1,0.3c0.4,1.7,1.4,3.2,1.5,3.4L852.5,421.8z M844.6,423.3
				c-0.1-0.3-0.5-1-0.8-1.3c0.7-0.6,2.1-1.6,3.4-2.1c1.9-0.8,3.2-2.3,3.8-3.5c0.2-0.4,0.3-0.7,0.5-0.9c-0.1,0.5-0.1,1.1-0.1,1.7
				c-0.3,1.4,0.6,3.9,0.9,4.7l-2.4,0.8l-1.3-0.7L844.6,423.3z M840.8,432.6l-6.7-2l6.6-1.5C840.9,430.2,840.9,431.4,840.8,432.6z
				 M840,436.2l-7.6-2.3l-1.3-1.4c0.2-0.4,0.3-0.9,0.4-1.4l1.9-0.4l7.4,2.2C840.6,434.1,840.3,435.1,840,436.2z M831.6,430.7
				c0.2-0.1,0.5-0.2,0.8-0.3l0.2,0.1L831.6,430.7C831.6,430.7,831.6,430.7,831.6,430.7z M826.3,435.6l-0.3,1.1l-0.2-1.1
				C825.9,435.6,826.1,435.6,826.3,435.6z M829,434.9l0.2,1.1l-0.8-0.8C828.6,435.1,828.8,435,829,434.9z M830.6,433.3
				c0.1-0.2,0.2-0.3,0.3-0.5l0.8,0.8L830.6,433.3z M838,439.8l-5.1-5.4l6.9,2.1C839.4,437.7,838.8,438.8,838,439.8z M835.4,442.6
				l-5.7-6.1l-0.4-1.9c0.2-0.1,0.4-0.3,0.6-0.4c0.2-0.2,0.3-0.3,0.5-0.5l1.8,0.6l5.6,5.9c-0.5,0.6-1.1,1.3-1.7,1.8
				C835.9,442.2,835.6,442.4,835.4,442.6z M831.7,444.8l-1.8-7.6l5.2,5.6C834.1,443.6,832.9,444.3,831.7,444.8z M828.1,445.8l-2-8.4
				l0.6-1.8c0.5,0,0.9-0.1,1.4-0.3l1.3,1.4l1.9,8.3C830.3,445.4,829.2,445.7,828.1,445.8z M823.5,445.9l2.4-7.7l1.8,7.7
				C826.3,446.1,824.9,446.1,823.5,445.9z M821.9,437l-2.4,7.7c-1.3-0.6-2.5-1.3-3.6-2.2L821.9,437z M823.9,435.1
				c0.4,0.2,0.9,0.3,1.4,0.4l0.4,1.9l-2.6,8.4c-1.1-0.2-2.2-0.5-3.2-0.9l2.6-8.4L823.9,435.1z M832.6,427.1l3.1-0.7l-3.8,1.3
				L832.6,427.1z M838,422.2c0.7,0.9,1.2,1.9,1.7,2.9l-0.5,0.2l-5.9,1.3L838,422.2z M819.9,433.8l1.9-0.4c0.1,0.2,0.3,0.4,0.5,0.6
				c0.2,0.2,0.3,0.3,0.5,0.5l-0.6,1.8l-6.5,6c-0.4-0.3-0.7-0.6-1-1c-0.4-0.5-0.9-1-1.2-1.5L819.9,433.8z M821.3,432.5
				c0.1,0.2,0.2,0.3,0.3,0.5l-1.1,0.2L821.3,432.5z M829.6,424.8l-0.3,1c-0.2-0.1-0.3-0.2-0.5-0.3L829.6,424.8z M835.4,419.4
				c0.5,0.4,1,0.8,1.4,1.3c0.3,0.3,0.6,0.7,0.9,1.1l-5.3,4.9l-1.9,0.4c-0.1-0.2-0.3-0.4-0.5-0.6c-0.2-0.2-0.3-0.3-0.5-0.5l0.6-1.8
				L835.4,419.4z M811.4,435.7l7.8-1.8l-5.9,5.5C812.4,438.3,811.8,437,811.4,435.7z M810.6,432.1l8.3-1.9l1.8,0.6
				c0,0.5,0.2,0.9,0.3,1.4l-1.4,1.3l-8.4,1.9C810.9,434.3,810.7,433.2,810.6,432.1z M810.9,427.8l7.2,2.2l-7.6,1.7
				C810.5,430.4,810.7,429,810.9,427.8z M812.2,424.3l7.7,2.4l1.3,1.4c-0.2,0.4-0.3,0.9-0.4,1.4l-1.9,0.4l-7.9-2.4
				C811.3,426.3,811.7,425.3,812.2,424.3z M814.5,420.9l4.9,5.2l-7-2.1C812.9,422.8,813.7,421.8,814.5,420.9z M814.8,420.6
				c0.2-0.2,0.4-0.4,0.6-0.6c0.6-0.6,1.3-1.1,2-1.5l5.2,5.6l0.4,1.9c-0.2,0.1-0.4,0.3-0.6,0.4c-0.2,0.2-0.3,0.3-0.5,0.5l-1.8-0.6
				L814.8,420.6z"/>
		</g>
		<path id="man" class="st9" d="M518.9,222.6c0.8-0.5,1.4,0.4,2.1,0.5c0.1,0,0.1,0.1,0.2,0c-0.3-0.3-0.8-0.5-1.1-0.8
			c-0.3-0.2-0.8-0.5-0.9-0.9c0.8-0.4,1.4,0.3,2,0.6c0.6,0.3,1.3,0.5,1.8,1.1c0.6,0,1.2,0.6,1.8,0.1c-0.3-0.9-1.8-1.1-1.6-2.4
			c0.9-0.1,1.6,0.6,2.2,1.1c0.6,0.5,1.5,0.9,1.9,1.5c0.5,0.8,0.4,1.8,1,2.4c0.4,0.4,1.1,0.8,1.8,1.1c0.7,0.3,1.4,0.6,2,0.8
			c1.2,0.4,2.4,0.5,3.5,0.9c0.4,0.1,0.8,0.2,1.1,0.3c0.4,0.1,0.6,0.4,0.9,0.4c0.7,0.2,1.5-0.1,2,0.4c1.8-0.8,3.3,0.2,4.2,1.3
			c1.2-0.1,2.3-0.2,3.3,0.1c0.7,0.2,1.4,1.1,2.3,0.1c-0.1-0.5-0.6-0.6-0.9-0.9c0,0-0.1-0.1-0.1-0.1c-0.1,0.1-0.2,0.2-0.3,0.2
			c-0.1,0,0-0.1,0-0.2c-0.1-0.1-0.3,0.1-0.3-0.1c-0.2,0.2-0.5,0.4-0.7,0.2c0-0.1,0.2-0.1,0.2-0.2c-0.1-0.1-0.4,0.1-0.4-0.1
			c0.5-0.1,0.6-0.5,0.4-0.8c-0.2-0.1-0.3-0.2-0.5-0.3c-0.1,0-0.1-0.1-0.2-0.1c-0.1,0-0.2-0.1-0.3-0.1c-0.3-0.1-0.5-0.3-0.7-0.4
			c-0.9-0.6-1.2-1.6-1.8-3c-0.2,0.3,0.1,0.8,0.3,1.1c-0.2,0.1-0.3-0.2-0.5-0.3c0.1,0.2,0.3,0.4,0.4,0.6c-0.7-0.1-1.1-1.5-0.7-2
			c-0.1-0.1,0-0.2,0-0.3c-0.1,0-0.1,0-0.2,0c0-0.6,0.2-1,0.5-1.4c0.1-0.2,0.4-0.3,0.5-0.5c0-0.1,0-0.3,0-0.3
			c0.1-0.3,0.4-0.4,0.4-0.7c0.2-0.2,0.5-0.3,0.7-0.4c-0.2-0.2,0.2-0.3,0.1-0.4c0-0.1-0.3,0-0.3-0.1c0.1-0.2,0.5-0.4,0.8-0.4
			c0.1,0,0.1,0,0.2,0c0.3-0.1,0.4-0.5,0.8-0.5c-0.2-0.3-0.7,0-0.9-0.2c0.5-0.3,1.1-0.2,1.4,0.2c0.3,0.1,0.5-0.2,0.8-0.2
			c0.2-0.2,0.8-0.2,1.3-0.4c0.1,0,0.1-0.1,0.2-0.1c0.2,0,0.3,0.1,0.5,0c0.2,0.1,0.4,0.1,0.7-0.1c0.1,0,0.2,0.2,0.2,0.3
			c0.1,0,0.2-0.1,0.3,0c0.1,0,0.1,0.1,0.1,0.2c0.1,0,0.2-0.1,0.3-0.1c0.1,0,0.1,0.1,0.1,0.2c0.2,0,0.3,0,0.4,0c0,0.1,0,0.1,0,0.2
			c0.1,0.1,0.2,0.1,0.2,0.3c0.4,0,0.5,0.7,0.3,1c0.4,0.3,0.7,0.5,0.9,0.8c0.2,0.2,0.2,0.5,0.3,0.7c0.3,0.4,0.8,0.7,1.1,1.2
			c0.1,0.2,0.1,0.5,0.3,0.8c0.1,0.3,0.4,0.5,0.5,0.7c0.1,0.2,0,0.4,0.1,0.6c0.1,0.3,0.4,0.5,0.4,0.9c0.1,0.7-0.7,0.8-0.8,1.4
			c-0.1,0.9,0.4,1.3,0.7,2.2c1.4,0,2.2-1.5,3.7-1.9c1.2-0.3,2.5-0.2,3.4-0.9c0.5-0.3,0.8-0.7,1.5-1.1c0.2-0.1,0.5-0.3,0.6-0.3
			c0.3-0.1,0.6,0.2,0.9,0.2c0.3,0,0.8-0.4,1.3-0.5c0.4-0.1,0.8-0.1,1.1-0.2c0.3-0.1,0.7-0.7,1.1-1c0.7-0.5,1.6-0.9,2.4-1.3
			c2.5-1.2,5-2.5,6.8-4.1c0.7-0.6,0.9-1.7,1.4-2.5c0.2-0.3,0.5-0.4,0.7-0.7c0.4-0.5,0.5-0.8,1.1-1.3c0.2-0.1,0.3-0.5,0.6-0.4
			c0.4,0.9-0.6,1.4-0.6,2.1c1.1-0.4,1.6-1.4,2.3-2.1c0.2-0.2,0.5-0.6,0.9-0.4c0.2,0.6-0.3,1.1-0.6,1.5c-0.3,0.4-0.8,0.8-0.9,1.3
			c0.6,0,1.2-0.7,1.8-1.1c0.5-0.4,1.2-1.1,1.8-0.8c0,0.8-0.8,1.1-1.3,1.5c-0.2,0.2-0.4,0.5-0.7,0.7c-0.3,0.2-0.7,0.3-0.8,0.6
			c0.3,0.3,0.8-0.1,1.2-0.3c0.3-0.1,0.7-0.1,1-0.2c0.6-0.2,1.2-0.7,1.5-0.2c-0.2,0.5-0.8,0.7-1.3,0.9c-0.5,0.3-1.2,0.5-1.7,0.7
			c0.8,0.2,1.8-0.6,2.3-0.3c-0.1,0.6-1.2,1-2,1.1c-0.2,0-0.5,0-0.7,0c-0.4,0.2-0.7,0.6-0.9,0.8c-0.8,0.5-1.8,0.7-2.7,1
			c-1.8,0.7-3.4,2.4-4.7,3.6c-1.1,1-2.2,1.9-3.5,2.7c-0.4,0.3-0.8,0.7-1.2,0.9c-0.2,0.1-0.4,0.1-0.5,0.2c-1,0.6-1.8,1.6-2.8,2.3
			c-0.3,0.5-0.6,0.9-0.9,1.3c-0.6,0.7-1.6,1-2.4,1.6c-0.8,0.6-1.4,1.5-2.1,2.2c0.2,0.8,0.3,1.4,0.5,2.1c0.2,0.6,0.5,1.1,0.7,1.8
			c0.2,0.7,0.3,1.5,0.2,2.2c0,1.3-0.6,2.6-0.3,3.9c0.3,1.6,1.3,3,1.9,4.6c0.3,0.8,0.3,1.8,0.6,2.7c0.3,1.1,1.3,2.1,0.7,3.1
			c0.6,1.2,1,2.5,1.6,3.8c0.2,0.4,0.4,0.8,0.6,1.2c0.3,0.9,0.3,2.1,0.6,3.3c0.2,0.9,0.2,1.8,0.3,2.6c0,0.4,0.2,0.8,0.3,1.2
			c0.1,0.6,0.1,1.2,0.2,1.8c0.2,1.2,0.4,2.7,0.7,4c0.2,0.7,0.4,1.4,0.4,2.1c0,0.7-0.3,1.4-0.4,2.1c-0.1,0.5,0,1,0,1.4
			c-0.1,0.3-0.3,0.6-0.3,1c0,0.3,0.2,0.6,0.2,1c0.2,0.8,0.3,1.7,0.5,2.5c0.3,1.3,0.8,2.7,1.1,4.1c0.4,1.8,0.4,3.8,1,5.1
			c0.1,0.3,0.4,0.6,0.7,1c0.4,0.7,0.7,1.1,0.7,2.2c0,0.4,0,1,0,1.2c-0.2,1-0.9,1.7-0.2,2.9c0.2,0.4,0.6,0.5,0.8,0.9
			c0.2,0.6-0.1,1.1-0.1,1.7c0,0.8,0.4,1.4,0.1,2.1c0.9,0.6,2.8,0.8,4.2,1.2c0.7,0.2,1.4,0.4,1.3,1.4c0.1,0.2,0.4,0.1,0.4,0.5
			c-1.9,0.8-4.5,1.5-6.6,1.6c-0.2,0-0.5,0-0.7,0c-0.3,0-0.7-0.3-1-0.3c-0.5,0-1.1,0.5-1.6,0.6c-0.9,0.2-1.6,0.1-2.4,0
			c-0.2-0.5-0.4-1.4-0.2-1.8c0-0.3-0.3-0.5-0.4-0.8c0-0.3,0.1-0.5,0-0.7c-0.1-0.4-0.5-0.6-0.7-1c-0.1-0.2,0-0.5-0.1-0.7
			c-0.1-0.3-0.4-0.5-0.4-0.8c-0.1-0.5,0-1.1-0.1-1.6c-0.1-0.5-0.1-1.1-0.2-1.6c-0.3-1.9-0.6-3.9-1.1-5.9c-0.4-1.6-1-3.1-1.4-4.6
			c-1.2-4.3-2.2-9.2-3.2-13.8c-0.1-0.7-0.1-1.3-0.5-1.9c0.1,0.9-0.2,1.8-0.2,2.7c0,0.4,0.2,0.8,0.1,1.2c0,0.3-0.2,0.7-0.3,1
			c-0.2,1.1-0.5,2-0.7,3.2c-0.1,0.7-0.3,1.5-0.4,2.2c-0.2,0.8-0.1,1.5-0.2,2.3c-0.1,0.7-0.3,1.5-0.3,2.2c0,0.4-0.1,0.7-0.2,1.1
			c0,0.4,0,0.8,0,1.2c0,0.1-0.1,0.3-0.2,0.4c-0.1,0.4,0,1,0,1.4c-0.2,4.1-0.9,8.5-0.4,13.4c0.1,1,0.5,2.1,0.4,3
			c0,0.2-0.2,0.4-0.2,0.7c0,0.5,0.5,0.9,0.3,1.5c0.8,0.6,2.1,0.8,2.9,1.5c0.2,0.2,0.5,0.7,0.7,1c0.1,0.2,0,0.5,0.1,0.7
			c0.1,0.2,0.4,0.2,0.3,0.5c-1.3,0.7-3.7,1.3-5.8,1.5c-1.1,0.1-2,0.4-2.5-0.3c-0.6,0.3-1.4,0.2-1.9,0c-0.3-0.9-0.1-1.6-0.2-2.3
			c-0.2-0.3-0.7,0-0.9-0.1c-0.3-0.6-0.6-1.1-0.6-1.8c0-0.3,0.3-0.5,0.3-0.8c0-0.4-0.2-1-0.3-1.5c0-0.2,0.1-0.5,0-0.7
			c-0.1-0.4-0.3-0.8-0.3-1.2c0-0.8,0.4-1.6,0.5-2.4c0.1-0.7,0.2-1.5,0.1-2.1c0-1.3-0.4-2.7-0.5-4c-0.1-0.8,0.1-1.7,0-2.5
			c-0.3-2.8,0.1-5.9,0.6-8.4c0.2-1.2,0.4-2.5,0.5-3.7c0.1-1.3-0.1-2.6,0.1-3.9c0.2-1.2,0.4-2.4,0.4-3.7c0-1.3,0-2.6,0-4
			c0.1-1.8,0.5-3.7,0.6-5.6c0-0.6,0.2-1.4,0.1-1.9c-0.1-0.3-0.3-0.6-0.4-0.9c-0.2-0.9-0.1-1.7,0.1-2.6c-0.1-0.2-0.3-0.1-0.4-0.4
			c-0.1-0.3,0.1-0.5,0.1-0.7c0-0.9-0.3-1.7-0.2-2.6c-0.1-0.3-0.7,0.1-0.9-0.1c-0.1-1.7,0.2-3.5-0.2-5.2c-0.3-1.3-1.1-2.6-1.7-4
			c-1.2-2.5-2.3-5.1-3.6-7.4c-0.3-0.6-0.6-1.2-1-1.7c-0.4-0.5-0.9-0.9-1.2-1.4c-0.2-0.2-0.2-0.5-0.4-0.7c-0.1-0.2-0.3-0.3-0.4-0.4
			c-0.2-0.2-0.2-0.6-0.4-0.8c-0.2-0.2-0.6-0.3-0.8-0.4c-0.1-0.1-0.2-0.3-0.4-0.4c-0.8-0.8-1.9-1.8-3-2.4c-0.6-0.8-1.7-1.3-2.6-1.9
			c-0.6-0.3-0.8-0.4-1.5-0.6c-1.2-0.3-2.3-0.9-3.4-1.6c-0.8-0.5-1.6-1.3-2.4-1.7c-0.4-0.2-0.9-0.2-1.2-0.4c-0.2-0.1-0.5-0.4-0.7-0.6
			c-0.2-0.2-0.4-0.5-0.6-0.6c-0.2-0.1-0.7-0.2-1.1-0.3c-0.3-0.1-0.7-0.4-0.9-0.5c-0.8-0.2-1.7,0.2-2.3-0.5c-0.1-0.3,0.3-0.4,0.4-0.5
			c-0.8-0.4-1.8-0.3-2.4-1c0.2-0.4,0.8-0.5,1.2-0.3C520.7,223.8,519.4,223.8,518.9,222.6z"/>
		<g id="XMLID_13_">
			<path id="XMLID_5_" class="st9" d="M509.8,282.1L509.8,282.1c-0.5-0.1-0.9-0.7-0.7-1.2l16.5-71.5c0.1-0.5,0.7-0.9,1.2-0.7l0,0
				c0.5,0.1,0.9,0.7,0.7,1.2L511,281.3C510.9,281.8,510.3,282.2,509.8,282.1z"/>
			
				<ellipse id="XMLID_7_" transform="matrix(0.225 -0.9743 0.9743 0.225 120.8611 715.0189)" class="st9" cx="509.9" cy="281.5" rx="0.5" ry="2.5"/>
			<polygon id="XMLID_11_" class="st9" points="508.7,286.8 508.7,286.8 512.3,268.2 513.6,268.5 			"/>
		</g>
		<path id="XMLID_17_" d="M550.8,253.6L550.8,253.6c-1.3,0.6-2.8,0.2-3.5-1.1l-6.1-11.9c-0.6-1.3-0.2-2.8,1.1-3.5l0,0
			c1.3-0.6,2.8-0.2,3.5,1.1l6.1,11.9C552.6,251.4,552.1,252.9,550.8,253.6z"/>
		<path id="XMLID_19_" d="M543.6,146.5L543.6,146.5c-0.1,0.1-0.2,0-0.3-0.1l-0.1-0.2c-0.1-0.1,0-0.2,0.1-0.3l0,0
			c0.1-0.1,0.2,0,0.3,0.1l0.1,0.2C543.7,146.3,543.7,146.5,543.6,146.5z"/>
		<path id="XMLID_20_" d="M541.8,142.8L541.8,142.8c-0.1,0.1-0.2,0-0.3-0.1l-0.1-0.2c-0.1-0.1,0-0.2,0.1-0.3l0,0
			c0.1-0.1,0.2,0,0.3,0.1l0.1,0.2C542,142.6,541.9,142.8,541.8,142.8z"/>
		<path id="XMLID_21_" d="M545.6,150.4L545.6,150.4c-0.1,0.1-0.2,0-0.3-0.1l-0.1-0.2c-0.1-0.1,0-0.2,0.1-0.3l0,0
			c0.1-0.1,0.2,0,0.3,0.1l0.1,0.2C545.8,150.2,545.7,150.3,545.6,150.4z"/>
		<path id="XMLID_18_" d="M544,138.5L544,138.5c-0.2,0-0.3-0.1-0.3-0.3v-0.7c0-0.2,0.1-0.3,0.3-0.3l0,0c0.2,0,0.3,0.1,0.3,0.3v0.7
			C544.3,138.4,544.1,138.5,544,138.5z"/>
		<path id="XMLID_236_" class="st10" d="M335.1,586.2l-18.6,26.8l-6.6,20.2L299,650.3l-18,9.4l-12,22l-11,7.3c0,0,0.1,8.2,10.5,4.9
			c10.5-3.3,27.9-26.7,27.9-26.7l15.8-16.8l16.6-34.7l18.2-29.5V574l-12.2,12.3"/>
		<path id="XMLID_22_" class="st11" d="M324,602l-43,4l-21-4c0,0-11.5,1-16.5,0s-11.5,2-14.5,2s-12,6-17,8.5s-8.5,7.9-10,8.9
			s2,14.6,0,16.1s-9,15-10,18.5s-3.5,20-3.5,20l-8.5,8l-21.2-1.7l12-13.2l28.3-66.2l48.2-28.8l45.5,17.7L324,602z"/>
		<linearGradient id="XMLID_243_" gradientUnits="userSpaceOnUse" x1="119.7603" y1="490.8975" x2="1222.959" y2="490.8975">
			<stop  offset="0.3561" style="stop-color:#0D5837"/>
			<stop  offset="0.405" style="stop-color:#0D5837"/>
			<stop  offset="0.4635" style="stop-color:#176C3B"/>
			<stop  offset="0.6117" style="stop-color:#39B54A"/>
		</linearGradient>
		<path id="XMLID_179_" style="fill:url(#XMLID_243_);" d="M1213.3,711.2l-25.5-13.3c0,0-8.4-17.8-15.3-32
			c-6.9-14.2-21.3-10.7-21.3-10.7l-19.7,0.1l-12.2-10.4c0,0-10.7-15.7-13-17.9c-2.3-2.2-13-14.1-13-14.1l-3.9-17.2l-9.3-18.6
			l-5.9-18.6l-6-8.9c-0.1-0.4-7.1-3.5-7.2-3.8l-24.1-1.4l-42.3,18.9l-34.8-5.8l-47.1-32.7l-48.6-26.7l-71.6-76.1L744,395.2
			l-49.1-95.7l-22.8-10.4l-24.5-37.4l-46.5,60.3l9.8-12.7l-61.2,19.1l-43.5,63.3L496,420.8l-46.8,19.8l-22.4,48.2l-81.3,63.6
			L323,582.6l-5.3,1.6l-24.9,7.6l-45.5-17.7l-48.2,28.8l-28.3,66.2l-51,56.2l105.5,0.4c59.6-53.8,141.3-96.3,236.4-121.9l0-0.2
			l16.5-4.3l0-0.2c0,0.2,0.1,0.3,0.1,0.5c60.2-14.7,125.5-22.8,193.6-22.8c1.5,0,3,0,4.4,0l9.2-8.1l-1.2,9.1c0,0,40.1-0.4,61.2,2.5
			l-0.1-0.3c21.7,1.9,43,4.6,63.8,8.1c0,0,125.5,22.6,149.3,41.2c3.2,2.5,6.1,3.5,8.8,3.6c61,25.3,113.8,58.3,155.4,96.9L1223,730
			L1213.3,711.2z"/>
		<polygon id="XMLID_69_" class="st13" points="676,576.9 683.9,577.8 688,571.9 688,564 		"/>
		<path id="XMLID_70_" class="st14" d="M568.2,475.2l-10.5,4.7l-15.3,6.7l-9,10.2c0,0-2,7.2-4.3,9.2c-2.3,2-10,13-10,13l-6,7.7v5.3
			v5l3,10l8-4.5l1.8-10.6l7.5-9.3c0,0,5.9-7.1,9-11.5c3-4.5,12.4-14.3,12.4-14.3s8-6.2,10.7-10.2C568,482.7,568.2,475.2,568.2,475.2
			z"/>
		<path id="XMLID_72_" class="st14" d="M699.3,386.5l-20.8,7.8c0,0-16.6,5.4-19.9,5.7c-3.3,0.3-11.3,0.2-18,6.6c-6.7,6.4-8,3.7-10,8
			s-6.7,15.2-8.7,15.7c-2,0.6-8.6,11.4-8.6,11.4l-3.1,14.1H631l9.7-10.6l4.7-13.1c0,0,3.3-7.5,6.7-11s8-4.2,10-6.6
			S699.3,386.5,699.3,386.5z"/>
		<polygon id="XMLID_30_" class="st14" points="554.2,445.9 491.9,461.6 472,495.7 440,537 397,573 354,579.3 325,601 293.8,590.8 
			331,579.3 346.5,551.4 427.8,487.8 450.2,439.7 498,421.8 		"/>
		<polygon id="XMLID_29_" class="st14" points="647.7,252.8 629.9,319.1 577,353.1 561.3,396 552.2,445.9 496,421.8 506.3,382.8 
			549.8,319.4 611,300.4 		"/>
		<path id="XMLID_73_" class="st14" d="M289.5,615.3l-19.9,5.9l-8,3L247,629c0,0-7.3-0.6-9.3,0c-2,0.6-13.3,5.3-13.3,5.3
			s-4.7,4-6.7,4.7c-2,0.7-4.7-2-6.7,0s-12.7,6-12.7,6l-6.7,5.3l0.3,5.7l3,3.7c0,0,3.3,2.7,8,0c4.7-2.7,8-5.3,8-5.3l2.7-4.2
			c0,0,5.3-2.2,10.7-2.2c5.3,0,11.7,0,11.7,0s1.2,0,5.4,0s7.6,0,11.6,0s9.3-2.3,9.3-2.3s2-1.3,6-4c4-2.7,0-3.3,7.3-7.3
			c7.3-4,10.7-8.7,10.7-8.7L289.5,615.3z"/>
		<path id="XMLID_176_" class="st15" d="M671.9,289.1l23,10.4l31.1,60.2v7.4h-11h-4c0,0-0.5-10-1-12s-0.5-8-0.5-8s-1-4-1.5-6.5
			s-2.5-6-2.5-6l-2.5-6.4c0,0-5-4.6-7-6.1s-13.5-7.5-16-9s-5.3-0.5-8.1-5s-5.4-14.5-5.4-14.5L671.9,289.1z"/>
		<path id="XMLID_181_" class="st15" d="M610.8,299.5l36.8-46.7l24.2,36.3l7.5,20.2c0,0-1.7,7.8-1.7,9c0,1.2-3,6.7-3,6.7H663
			c0,0-4.5-0.3-8.2,0c-3.8,0.3-3.1,1-7.1,0s-7.7-4.3-7.7-4.3l-5.7-6.7c0,0-2-2.3-2.7-3.7c-0.7-1.3,4.3,0.3-5.3-3.3
			C616.7,303.3,610.8,299.5,610.8,299.5z"/>
		<path id="XMLID_182_" class="st15" d="M610.6,299.4L578,309.5l-1.3,1.5l-0.7,1v2.4v0.6c0,0,1,1.9,1.2,2.2s0.4,0.3,1.2,0.8
			s5.2,2,5.2,2h5.2l3.2-0.9c0,0,1.5-0.8,2.3-1.8s3-3.2,3-3.2s1.8-1.2,3-1.2s2.8-1,6.2-0.7c3.4,0.3,3.9,0.3,6.2,0.4s4.2,0.1,6,0.2
			c1.8,0.1,4.7-1.8,4.7-1.8l2.8-0.8c0,0,3.1-0.2,3.5-0.2c0.4,0,2.9,0,2.9,0l3.2-1.9V306L610.6,299.4z"/>
		<path id="XMLID_184_" class="st14" d="M395.4,591h-11.7l-7.8,1.6l-5.5,1.6l-5.5,3.2l-3,7.3v2.2l10.1,1.9l11.9-1l8.1-2.3l13.3-4.9
			c0,0,5.5-1.3,6.9-2.1c1.4-0.8-3.7-4.6-3.7-4.6L395.4,591z"/>
	</g>
	<path id="XMLID_234_" class="st10" d="M710,431.7l-7.5,11.8c0,0-10.9,12.2-12.9,14.9c-2.1,2.6-7.9,12.4-10.3,13.8s-9.1,8.5-8,9.9
		c1.1,1.5,2.6,13,2.6,13l5.3,8l8.7,3l8.2-2.5c0,0,0.8-2,0-8s0-13.5,0-13.5s-1.1-10.8,3.1-16.9c4.2-6.1,10.7-13.2,10.7-16.2
		C710,446,710,431.7,710,431.7z"/>
	<path id="XMLID_235_" class="st10" d="M598.8,400.1l-14.4,15.4l-5.9,4l-6.7,11.4l-3.6,10.2l3.7,8.3l4.2,6.7c0,0,2.3,1.9,3.8,1.5
		s8.2-3.5,8.2-3.5v-15l0.4-10L598.8,400.1z"/>
	<path id="XMLID_233_" class="st10" d="M791.3,470.5l10.6,12.6l14,8.8l9.6,6.1l9.5,8l4.6,5.1l7.3,7.9v7l2,6.5l1.6,8l-3.3,6.5
		c0,0-5.3,0-9.6,0c-4.3,0-12.2,0-12.2,0l-6.2-7.5c0,0-6-15.8-6-15.6c0.1,0.1,0-12.7,0-12.7L795,494.5c0,0-12-15.9-12-17.4
		C783,475.5,791.3,470.5,791.3,470.5z"/>
	<polygon id="XMLID_238_" class="st10" points="913,524.6 960,557.3 963.7,564 957.6,567.7 938,564 938,553 931.7,546.1 
		920.5,539.7 913,535 	"/>
	<path id="XMLID_237_" class="st10" d="M499,501.5l-17.3,11.4l-13.2,17.4l-8.8,16.7c0,0-4,8.8-8.7,10.7c-4.7,1.9-16.4,9.9-16.4,9.9
		l-10.6,6.4V588l18.3,11.9c0,0,12-2.9,14-3.5c2-0.7,4.2-3.3,12.1-5.3c7.9-2,16.6-8.7,16.6-8.7l21.2-18.3L493,533.7L499,501.5z"/>
	<polygon id="XMLID_240_" class="st10" points="330.5,619.6 324,618.9 311,618.2 304.2,619.7 300.2,626 297.5,631.3 302.5,634 
		309,634 314,629 315.5,627.2 326.2,622.8 	"/>
	<path id="XMLID_241_" class="st10" d="M1082.5,582.6l10.3,27.7l22.3,27.9v6.9h-7h-4l-8-4c0,0-0.5-2-1-3.5s-1-7.5-1-7.5s0-1-1-3
		s-3-1.1-6-5.6s-6.5-5.4-7-7.7s-3-7.3-1.5-10.8s4-7.5,4-7.5l-1-7.5L1082.5,582.6z"/>
</g>
</svg>
